<svg xmlns="http://www.w3.org/2000/svg" viewBox="0 0 952 1030"><defs><clipPath id="a"><path fill="#fff" d="M0 0h952v1030H0z"/></clipPath></defs><g clip-path="url(#a)"><path fill="#114038" d="M860.2-64c-17.86 170.53-80.67 403.27-15.85 612.12 73.05 235.4-58.22 393.7-250.36 481.88H-91V29.42C-47.11-3.1-1-34.4 46.33-64z" opacity=".84"/><g fill="none" opacity=".84"><path d="M939.04-107c-18.48 177.23-83.46 419.12-16.4 636.18 75.57 244.65-60.22 409.17-259 500.82H-45V-9.9C.4-43.7 48.1-76.24 97.07-107z"/><path fill="#bdadda" d="M97.36-106A2183.15 2183.15 0 00-44-9.4V1029h707.42a706.09 706.09 0 0071-37.65 605.56 605.56 0 0032.84-21.46 543.77 543.77 0 0030.7-23.18 488.4 488.4 0 0028.36-24.93 440.55 440.55 0 0025.8-26.68 400.96 400.96 0 0023.02-28.43 370.13 370.13 0 0020.02-30.22 348.5 348.5 0 0016.81-31.99 334.58 334.58 0 0023.14-69.39 343.47 343.47 0 005.9-37.42 364.22 364.22 0 001.82-39.25 398.2 398.2 0 00-2.47-41.11 447.14 447.14 0 00-6.97-42.97 513.2 513.2 0 00-11.71-44.85c-23.26-75.3-32.7-160.14-28.88-259.38 1.5-38.74 5.03-80.67 10.81-128.2 5.1-41.9 11.22-82.59 17.14-121.94 6.71-44.62 13.06-86.8 17.18-125.95H97.36m-.3-1h841.98c-18.48 177.23-83.46 419.12-16.4 636.18 75.57 244.65-60.22 409.17-259 500.82H-45V-9.9C.4-43.71 48.1-76.24 97.07-107z"/></g></g></svg>