<?xml version="1.0" standalone="no"?>
<!DOCTYPE svg PUBLIC "-//W3C//DTD SVG 20010904//EN"
 "http://www.w3.org/TR/2001/REC-SVG-20010904/DTD/svg10.dtd">
<svg version="1.0" xmlns="http://www.w3.org/2000/svg"
 width="1184.000000pt" height="1184.000000pt" viewBox="0 0 1184.000000 1184.000000"
 preserveAspectRatio="xMidYMid meet">
<metadata>
Created by potrace 1.14, written by Peter Selinger 2001-2017
</metadata>
<g transform="translate(0.000000,1184.000000) scale(0.100000,-0.100000)"
fill="#000000" stroke="none">
<path d="M70 8583 c-8 -4 -27 -19 -43 -34 l-27 -28 3 -1663 c1 -915 6 -1676
10 -1693 4 -16 10 -46 14 -65 3 -19 7 -37 8 -40 1 -3 5 -18 9 -35 41 -168 165
-400 299 -560 75 -90 240 -248 326 -312 42 -32 78 -60 81 -63 8 -8 125 -82
215 -135 167 -98 412 -205 629 -274 110 -35 351 -99 406 -107 19 -2 55 -9 80
-14 214 -43 527 -53 750 -25 252 33 331 52 640 156 214 72 277 90 365 105 17
2 39 7 51 9 139 30 435 23 609 -14 28 -6 61 -14 75 -16 27 -6 145 -42 170 -52
8 -3 21 -7 28 -9 58 -12 399 -202 450 -251 41 -40 230 -133 337 -167 131 -41
227 -54 385 -51 85 1 169 5 185 9 108 24 202 50 214 60 8 6 15 10 15 9 6 -14
176 71 269 135 140 96 235 154 323 197 110 53 283 112 374 129 14 2 36 7 50
10 149 35 469 39 612 7 24 -6 57 -12 73 -15 49 -9 217 -60 394 -121 143 -49
217 -69 321 -90 85 -18 130 -25 170 -30 25 -3 56 -7 70 -10 14 -2 68 -7 120
-11 219 -14 410 -3 640 38 63 11 122 21 130 23 8 1 22 5 30 7 15 6 170 46 200
53 61 13 306 99 420 148 14 6 27 11 30 12 8 2 122 55 150 69 199 104 428 250
485 310 6 6 26 23 45 38 49 37 200 187 200 198 0 6 3 10 8 10 8 0 80 90 132
165 109 160 177 318 220 510 19 88 19 134 20 1756 l0 1667 -35 31 c-56 49
-101 43 -207 -27 -24 -16 -63 -40 -88 -53 -25 -13 -47 -26 -50 -30 -7 -7 -187
-93 -262 -125 -132 -55 -334 -121 -460 -150 -10 -2 -28 -6 -40 -9 -13 -3 -34
-7 -48 -10 -14 -3 -36 -7 -50 -10 -14 -3 -43 -8 -65 -11 -22 -2 -51 -7 -65 -9
-94 -14 -231 -24 -365 -26 -107 -1 -312 9 -348 17 -12 3 -38 7 -57 9 -56 6
-113 14 -135 19 -20 4 -136 17 -190 21 -16 2 -70 6 -120 10 -191 16 -513 10
-640 -12 -16 -2 -41 -6 -55 -8 -148 -20 -428 -110 -606 -196 -45 -21 -86 -39
-92 -39 -6 0 -12 -3 -14 -7 -1 -5 -23 -19 -48 -32 -44 -24 -155 -93 -175 -108
-5 -5 -23 -17 -40 -27 -16 -10 -37 -25 -45 -33 -8 -7 -58 -46 -110 -85 -52
-40 -97 -75 -100 -78 -4 -5 -120 -96 -240 -188 -64 -50 -155 -122 -176 -139
-11 -10 -58 -47 -105 -83 -46 -35 -89 -69 -96 -75 -18 -14 -24 -19 -175 -137
-75 -59 -145 -114 -155 -122 -10 -8 -99 -79 -198 -156 -99 -78 -195 -153 -214
-168 -19 -15 -37 -28 -40 -29 -3 -2 -89 63 -191 143 -205 160 -203 159 -246
194 -17 14 -45 36 -64 50 -18 14 -59 45 -90 70 -32 25 -73 57 -91 72 -79 62
-305 240 -319 251 -8 7 -56 43 -105 82 -50 38 -126 98 -170 133 -211 168 -245
194 -325 253 -41 31 -88 64 -105 75 -16 10 -32 21 -35 24 -5 6 -41 27 -120 73
-97 55 -277 139 -350 163 -25 8 -54 19 -65 23 -50 22 -194 63 -258 75 -15 3
-35 7 -45 10 -9 3 -33 7 -52 10 -19 3 -46 8 -59 11 -124 25 -585 25 -781 0
-14 -2 -52 -6 -85 -10 -33 -4 -69 -9 -80 -11 -11 -3 -40 -7 -65 -9 -25 -3 -58
-8 -75 -12 -35 -7 -35 -7 -180 -18 -178 -14 -474 -8 -570 11 -11 2 -40 7 -65
10 -80 10 -246 45 -330 69 -30 8 -64 17 -74 20 -31 7 -180 57 -191 64 -5 3
-12 6 -15 6 -15 1 -152 60 -156 67 -3 4 -14 8 -25 8 -10 0 -19 5 -19 10 0 6
-6 10 -13 10 -17 0 -205 100 -274 146 -86 57 -133 72 -173 57z m11553 -1800
c0 -813 -3 -1505 -7 -1538 -26 -226 -149 -485 -313 -663 -78 -85 -106 -112
-164 -164 -89 -79 -277 -218 -294 -218 -3 0 -11 -5 -18 -11 -38 -34 -264 -150
-403 -207 -171 -70 -431 -153 -559 -178 -11 -2 -32 -6 -47 -10 -15 -3 -30 -5
-33 -5 -2 0 -19 -4 -36 -9 -17 -5 -57 -12 -88 -16 -31 -3 -65 -8 -76 -10 -112
-21 -474 -21 -580 0 -11 2 -45 7 -75 11 -30 4 -64 9 -75 12 -11 2 -31 6 -45 9
-81 16 -201 51 -315 91 -143 50 -393 118 -471 129 -27 3 -51 8 -54 9 -12 7
-198 18 -295 18 -91 0 -209 -7 -260 -17 -11 -2 -38 -7 -60 -11 -22 -4 -51 -9
-65 -11 -42 -7 -254 -66 -265 -74 -5 -3 -32 -15 -60 -25 -120 -43 -313 -151
-441 -246 -74 -54 -188 -114 -274 -143 -69 -23 -89 -28 -160 -43 -48 -9 -265
-12 -310 -3 -25 4 -58 10 -75 13 -86 13 -251 83 -341 144 -192 131 -260 172
-352 218 -59 29 -125 58 -147 65 -22 7 -44 16 -50 20 -25 17 -265 82 -312 84
-13 1 -23 3 -23 6 0 3 -8 6 -17 6 -10 1 -43 4 -73 9 -115 16 -400 13 -520 -6
-63 -9 -125 -20 -137 -23 -71 -16 -215 -58 -247 -71 -20 -8 -36 -12 -36 -9 0
4 -6 2 -13 -3 -24 -20 -291 -105 -367 -118 -19 -3 -51 -10 -70 -15 -19 -5 -57
-12 -85 -15 -27 -4 -61 -8 -75 -10 -217 -31 -526 -21 -750 25 -30 6 -66 14
-79 16 -161 32 -438 116 -576 175 -16 7 -32 13 -35 14 -56 19 -266 123 -357
177 -222 133 -388 270 -534 443 -19 22 -36 42 -39 45 -14 12 -100 150 -100
160 0 5 -4 10 -10 10 -5 0 -10 9 -10 19 0 11 -4 21 -8 23 -10 4 -66 136 -83
198 -20 72 -26 102 -35 180 -5 41 -9 2867 -5 2998 1 19 4 21 19 13 47 -25 576
-225 624 -236 13 -2 64 -16 113 -30 97 -27 316 -70 405 -79 161 -17 210 -20
380 -20 167 0 331 8 385 18 25 5 110 17 150 21 17 2 57 7 90 10 106 13 118 14
255 21 199 10 434 5 533 -11 101 -17 187 -35 262 -55 22 -6 45 -12 52 -13 7
-2 16 -6 19 -10 4 -4 15 -7 25 -7 28 0 211 -75 334 -137 94 -47 323 -191 361
-226 28 -28 55 -47 63 -47 5 0 11 -4 13 -9 2 -5 41 -39 88 -75 47 -37 92 -72
100 -79 8 -7 76 -59 150 -117 179 -138 284 -223 288 -232 2 -5 10 -8 17 -8 7
0 15 -4 17 -8 2 -4 66 -57 143 -117 77 -60 145 -113 150 -117 6 -5 20 -16 31
-26 12 -9 36 -28 54 -42 18 -14 69 -54 114 -89 45 -35 96 -75 115 -90 19 -14
39 -30 45 -36 6 -5 38 -30 71 -55 33 -25 62 -47 65 -50 3 -3 32 -27 65 -52 81
-63 130 -67 190 -16 11 10 88 70 170 135 83 65 152 121 153 125 2 5 10 8 18 8
8 0 14 4 14 8 0 5 18 21 41 38 22 16 46 34 52 39 7 6 55 44 107 85 52 41 100
79 106 85 6 5 26 21 44 35 18 14 41 32 51 40 29 23 64 50 199 156 69 54 127
101 130 104 9 10 420 333 519 408 53 40 104 79 113 87 9 8 31 21 47 29 16 9
49 29 73 45 41 27 229 122 293 148 17 7 75 28 130 47 176 61 306 89 480 101
135 10 457 5 580 -9 17 -2 59 -6 95 -10 36 -4 76 -9 90 -11 41 -7 82 -13 139
-20 30 -4 63 -8 74 -11 32 -6 233 -16 327 -17 87 -1 312 11 346 17 11 2 47 7
79 11 33 4 69 9 80 11 55 11 82 16 105 19 14 2 52 10 85 19 33 8 71 17 85 20
41 8 201 56 221 67 11 5 19 7 19 3 0 -3 7 -1 15 6 8 7 15 10 15 7 0 -3 48 15
108 40 59 24 112 45 117 47 6 2 21 8 35 14 65 27 86 35 96 37 19 4 138 58 148
67 5 4 12 6 14 3 3 -2 5 -669 5 -1482z"/>
<path d="M2947 6404 c-1 -2 -32 -6 -67 -9 -36 -3 -76 -8 -90 -10 -14 -2 -41
-7 -60 -10 -134 -22 -377 -97 -506 -155 -159 -72 -343 -171 -437 -237 -239
-166 -280 -207 -270 -271 6 -39 19 -57 80 -103 32 -24 60 -46 63 -49 15 -15
171 -118 259 -170 267 -157 510 -250 821 -315 8 -1 40 -6 70 -10 30 -4 64 -9
75 -12 28 -6 301 -5 355 1 125 15 283 46 370 72 30 10 60 18 65 20 14 3 156
53 180 64 60 25 297 144 340 170 28 17 58 33 68 36 9 4 17 10 17 15 0 5 7 9
15 9 8 0 15 3 15 8 0 4 20 18 45 32 25 14 45 27 45 31 0 3 10 11 23 17 38 18
159 120 177 149 18 31 18 86 0 108 -7 8 -9 22 -6 31 5 13 3 14 -7 6 -10 -8
-26 -1 -67 32 -30 23 -84 62 -120 87 -36 24 -67 46 -70 49 -3 3 -21 14 -40 24
-19 11 -37 22 -40 26 -3 4 -18 14 -35 22 -185 97 -294 149 -365 177 -47 18
-94 37 -105 42 -87 39 -324 94 -495 115 -52 6 -298 12 -303 8z m252 -219 c57
-3 107 -7 110 -9 3 -2 30 -7 59 -10 29 -3 57 -8 61 -11 5 -2 26 -7 47 -11 117
-18 405 -136 564 -230 25 -15 70 -40 100 -57 30 -16 66 -36 80 -45 14 -9 50
-29 80 -44 30 -16 58 -33 63 -37 4 -4 -16 -20 -45 -35 -29 -16 -84 -46 -123
-68 -207 -117 -322 -177 -410 -212 -90 -37 -240 -85 -284 -92 -19 -3 -46 -10
-60 -16 -14 -5 -27 -9 -29 -8 -2 2 -69 -9 -107 -16 -98 -21 -430 -20 -464 0
-3 2 -32 7 -64 10 -76 9 -282 66 -395 110 -49 19 -145 63 -213 99 -117 60
-150 78 -266 144 -27 14 -61 33 -78 41 -73 37 -73 37 2 78 37 21 96 55 131 76
34 21 69 38 76 38 8 0 16 4 18 8 3 9 172 104 239 135 140 65 393 138 524 153
77 8 257 20 270 17 6 -1 57 -4 114 -8z"/>
<path d="M8667 6404 c-2 -2 -34 -6 -73 -9 -39 -3 -81 -8 -94 -10 -14 -3 -42
-7 -65 -10 -108 -16 -366 -94 -484 -147 -118 -53 -224 -106 -310 -156 -92 -54
-241 -149 -251 -161 -3 -3 -35 -28 -72 -56 -74 -56 -98 -88 -98 -135 0 -47 12
-63 103 -133 373 -289 795 -474 1210 -531 93 -12 403 -14 453 -3 12 3 45 8 74
12 60 8 68 9 130 24 25 7 52 13 60 15 299 73 679 259 940 461 127 97 146 127
125 189 -11 31 -77 104 -96 106 -3 0 -17 10 -30 21 -35 31 -275 189 -287 189
-5 0 -15 7 -22 15 -7 9 -15 13 -18 11 -3 -3 -17 3 -31 13 -34 23 -218 111
-296 140 -33 13 -69 27 -80 31 -25 11 -126 43 -141 46 -6 1 -36 9 -65 17 -50
14 -105 25 -154 32 -11 2 -36 6 -55 10 -75 14 -363 28 -373 19z m293 -229 c74
-7 91 -9 140 -20 14 -3 36 -7 50 -10 71 -13 94 -20 203 -56 131 -43 229 -89
393 -181 60 -33 134 -74 164 -91 30 -16 79 -43 109 -60 l54 -30 -29 -15 c-16
-8 -31 -18 -34 -22 -3 -3 -13 -9 -22 -13 -9 -3 -76 -40 -149 -82 -176 -100
-312 -166 -432 -209 -146 -54 -263 -81 -477 -113 -82 -12 -294 -6 -385 11 -11
2 -42 7 -70 10 -82 12 -321 78 -380 105 -11 5 -49 22 -85 37 -36 15 -96 44
-135 65 -97 51 -257 136 -339 180 l-68 37 98 57 c55 32 113 65 129 74 17 9 32
18 35 21 3 3 30 18 60 34 30 16 60 33 67 38 54 42 367 170 451 184 15 3 36 8
47 11 25 8 40 11 85 18 19 3 45 7 58 10 13 2 60 7 105 11 45 3 83 7 85 9 5 4
194 -2 272 -10z"/>
</g>
</svg>
